<svg width="400" height="400" viewBox="0 0 400 400" fill="none" xmlns="http://www.w3.org/2000/svg">
<path d="M0 48.0005C0 31.1988 0 22.7979 3.26985 16.3805C6.14608 10.7356 10.7356 6.14619 16.3805 3.27001C22.7979 0.000233899 31.1988 0.00032009 48.0005 0.00049247L352.001 0.00361142C368.802 0.00378379 377.203 0.00386998 383.62 3.2737C389.265 6.14992 393.854 10.7393 396.73 16.3842C400 22.8015 400 31.2022 400 48.0036V352C400 368.802 400 377.202 396.73 383.62C393.854 389.265 389.265 393.854 383.62 396.73C377.202 400 368.802 400 352 400H48C31.1984 400 22.7976 400 16.3803 396.73C10.7354 393.854 6.14601 389.265 3.2698 383.62C0 377.202 0 368.802 0 352V48.0005Z" fill="url(#paint0_linear_17_1557)"/>
<rect x="78" y="78" width="243" height="243" rx="16" fill="black"/>
<path d="M175.035 163.528L96.3628 136.873V97.2778L210.23 143.86V173.491L175.035 163.528ZM96.3628 185.266L175.035 157.964L210.23 148.777V178.279L96.3628 224.861V185.266Z" fill="white"/>
<defs>
<linearGradient id="paint0_linear_17_1557" x1="327" y1="-164.5" x2="633.285" y2="146.912" gradientUnits="userSpaceOnUse">
<stop offset="0.125" stop-color="#FFC54C"/>
<stop offset="0.528846" stop-color="#FF007A"/>
<stop offset="0.841346" stop-color="#FF4BD1"/>
</linearGradient>
</defs>
</svg>
